<svg xmlns="http://www.w3.org/2000/svg" xmlns:oryx="http://oryx-editor.org" id="_8FFF1564-5462-4836-899F-F26033442D92" width="773" height="316" xmlns:xlink="http://www.w3.org/1999/xlink" xmlns:svg="http://www.w3.org/2000/svg"><defs><marker id="_60DD1700-8230-437F-B419-82B7678B9C3Estart" refX="1" refY="5" markerUnits="userSpaceOnUse" markerWidth="17" markerHeight="11" orient="auto" fill="#000000" stroke="#000000"> 	  		<path id="_60DD1700-8230-437F-B419-82B7678B9C3Econditional" d="M 0 5 L 8 0 L 16 5 L 8 10 L 0 5" fill="white" stroke="#000000" stroke-width="1" display="none"/> 			<path id="_60DD1700-8230-437F-B419-82B7678B9C3Edefault" d="M 5 0 L 11 10" fill="white" stroke="#000000" stroke-width="1" display="none"/> 	  	</marker><marker id="_60DD1700-8230-437F-B419-82B7678B9C3Eend" refX="15" refY="6" markerUnits="userSpaceOnUse" markerWidth="15" markerHeight="12" orient="auto" fill="#000000" stroke="#000000"> 	  		<path id="_60DD1700-8230-437F-B419-82B7678B9C3Eframe2" d="M 0 1 L 15 6 L 0 11z" fill="#000000" stroke="#000000" stroke-linejoin="round" stroke-width="2"/> 	  	</marker><marker id="_2FAE9FA7-5E86-43D2-93AC-40A80844F621start" refX="1" refY="5" markerUnits="userSpaceOnUse" markerWidth="17" markerHeight="11" orient="auto" fill="#000000" stroke="#000000"> 	  		<path id="_2FAE9FA7-5E86-43D2-93AC-40A80844F621conditional" d="M 0 5 L 8 0 L 16 5 L 8 10 L 0 5" fill="white" stroke="#000000" stroke-width="1" display="none"/> 			<path id="_2FAE9FA7-5E86-43D2-93AC-40A80844F621default" d="M 5 0 L 11 10" fill="white" stroke="#000000" stroke-width="1" display="none"/> 	  	</marker><marker id="_2FAE9FA7-5E86-43D2-93AC-40A80844F621end" refX="15" refY="6" markerUnits="userSpaceOnUse" markerWidth="15" markerHeight="12" orient="auto" fill="#000000" stroke="#000000"> 	  		<path id="_2FAE9FA7-5E86-43D2-93AC-40A80844F621frame2" d="M 0 1 L 15 6 L 0 11z" fill="#000000" stroke="#000000" stroke-linejoin="round" stroke-width="2"/> 	  	</marker><marker id="_A8D73EBD-4219-4651-9595-1BB8E29EA877start" refX="1" refY="5" markerUnits="userSpaceOnUse" markerWidth="17" markerHeight="11" orient="auto" fill="#000000" stroke="#000000"> 	  		<path id="_A8D73EBD-4219-4651-9595-1BB8E29EA877conditional" d="M 0 5 L 8 0 L 16 5 L 8 10 L 0 5" fill="white" stroke="#000000" stroke-width="1" display="none"/> 			<path id="_A8D73EBD-4219-4651-9595-1BB8E29EA877default" d="M 5 0 L 11 10" fill="white" stroke="#000000" stroke-width="1" display="none"/> 	  	</marker><marker id="_A8D73EBD-4219-4651-9595-1BB8E29EA877end" refX="15" refY="6" markerUnits="userSpaceOnUse" markerWidth="15" markerHeight="12" orient="auto" fill="#000000" stroke="#000000"> 	  		<path id="_A8D73EBD-4219-4651-9595-1BB8E29EA877frame2" d="M 0 1 L 15 6 L 0 11z" fill="#000000" stroke="#000000" stroke-linejoin="round" stroke-width="2"/> 	  	</marker><marker id="_FBCE652F-F4B0-4077-B59B-374C6EEBA0C8start" refX="1" refY="5" markerUnits="userSpaceOnUse" markerWidth="17" markerHeight="11" orient="auto" fill="#000000" stroke="#000000"> 	  		<path id="_FBCE652F-F4B0-4077-B59B-374C6EEBA0C8conditional" d="M 0 5 L 8 0 L 16 5 L 8 10 L 0 5" fill="white" stroke="#000000" stroke-width="1" display="none"/> 			<path id="_FBCE652F-F4B0-4077-B59B-374C6EEBA0C8default" d="M 5 0 L 11 10" fill="white" stroke="#000000" stroke-width="1" display="none"/> 	  	</marker><marker id="_FBCE652F-F4B0-4077-B59B-374C6EEBA0C8end" refX="15" refY="6" markerUnits="userSpaceOnUse" markerWidth="15" markerHeight="12" orient="auto" fill="#000000" stroke="#000000"> 	  		<path id="_FBCE652F-F4B0-4077-B59B-374C6EEBA0C8frame2" d="M 0 1 L 15 6 L 0 11z" fill="#000000" stroke="#000000" stroke-linejoin="round" stroke-width="2"/> 	  	</marker><marker id="_93878EB5-8930-4E6D-A12F-DF78DB0E3A7Dstart" refX="1" refY="5" markerUnits="userSpaceOnUse" markerWidth="17" markerHeight="11" orient="auto" fill="#000000" stroke="#000000"> 	  		<path id="_93878EB5-8930-4E6D-A12F-DF78DB0E3A7Dconditional" d="M 0 5 L 8 0 L 16 5 L 8 10 L 0 5" fill="white" stroke="#000000" stroke-width="1" display="none"/> 			<path id="_93878EB5-8930-4E6D-A12F-DF78DB0E3A7Ddefault" d="M 5 0 L 11 10" fill="white" stroke="#000000" stroke-width="1" display="none"/> 	  	</marker><marker id="_93878EB5-8930-4E6D-A12F-DF78DB0E3A7Dend" refX="15" refY="6" markerUnits="userSpaceOnUse" markerWidth="15" markerHeight="12" orient="auto" fill="#000000" stroke="#000000"> 	  		<path id="_93878EB5-8930-4E6D-A12F-DF78DB0E3A7Dframe2" d="M 0 1 L 15 6 L 0 11z" fill="#000000" stroke="#000000" stroke-linejoin="round" stroke-width="2"/> 	  	</marker><marker id="_6BAE6B82-3C85-4277-99A5-48C80DE8CF30start" refX="1" refY="5" markerUnits="userSpaceOnUse" markerWidth="17" markerHeight="11" orient="auto" fill="#000000" stroke="#000000"> 	  		<path id="_6BAE6B82-3C85-4277-99A5-48C80DE8CF30conditional" d="M 0 5 L 8 0 L 16 5 L 8 10 L 0 5" fill="white" stroke="#000000" stroke-width="1" display="none"/> 			<path id="_6BAE6B82-3C85-4277-99A5-48C80DE8CF30default" d="M 5 0 L 11 10" fill="white" stroke="#000000" stroke-width="1" display="none"/> 	  	</marker><marker id="_6BAE6B82-3C85-4277-99A5-48C80DE8CF30end" refX="15" refY="6" markerUnits="userSpaceOnUse" markerWidth="15" markerHeight="12" orient="auto" fill="#000000" stroke="#000000"> 	  		<path id="_6BAE6B82-3C85-4277-99A5-48C80DE8CF30frame2" d="M 0 1 L 15 6 L 0 11z" fill="#000000" stroke="#000000" stroke-linejoin="round" stroke-width="2"/> 	  	</marker></defs><g stroke="none" font-family="Verdana, sans-serif" font-size-adjust="none" font-style="normal" font-variant="normal" font-weight="normal" line-heigth="normal" font-size="12"><g class="stencils" transform="translate(15, 16)"><g class="me"/><g class="children"><g id="_008B1787-6825-4B00-B1B5-B930E4F1B8EE" bpmn2nodeid="processStartEvent"><g class="stencils" transform="translate(120, 165)"><g class="me"><g pointer-events="fill" id="_008B1787-6825-4B00-B1B5-B930E4F1B8EE">        <defs id="_008B1787-6825-4B00-B1B5-B930E4F1B8EE__008B1787-6825-4B00-B1B5-B930E4F1B8EE_5"> 		<radialGradient id="_008B1787-6825-4B00-B1B5-B930E4F1B8EEbackground" cx="10%" cy="10%" r="100%" fx="10%" fy="10%"> 			<stop offset="0%" stop-color="#ffffff" stop-opacity="1" id="_008B1787-6825-4B00-B1B5-B930E4F1B8EE__008B1787-6825-4B00-B1B5-B930E4F1B8EE_6"/> 			<stop id="_008B1787-6825-4B00-B1B5-B930E4F1B8EEfill_el" offset="100%" stop-color="#9acd32" stop-opacity="1"/> 		</radialGradient> 	</defs> 	     <circle id="_008B1787-6825-4B00-B1B5-B930E4F1B8EEbg_frame" cx="15" cy="15" r="15" stroke="#000000" fill="url(#_008B1787-6825-4B00-B1B5-B930E4F1B8EEbackground) white" stroke-width="1" style="stroke-dasharray: 5.5, 3"/>      <circle id="_008B1787-6825-4B00-B1B5-B930E4F1B8EEframe" cx="15" cy="15" r="15" stroke="#000000" fill="none" stroke-width="1" display="inherit"/>  	<text font-size="11" id="_008B1787-6825-4B00-B1B5-B930E4F1B8EEtext_name" x="15" y="32" oryx:align="top center" stroke="black" stroke-width="0pt" letter-spacing="-0.01px" fill="#000000" text-anchor="middle" transform="rotate(0 15 32)" visibility="inherit" oryx:fontSize="11"/>   </g></g><g class="children" style="overflow:hidden"/><g class="edge"/></g><g class="controls"><g class="dockers"/><g class="magnets" transform="translate(120, 165)"><g pointer-events="all" display="none" transform="translate(7, 7)"><circle cx="8" cy="8" r="4" stroke="none" fill="red" fill-opacity="0.3"/></g></g></g></g><g id="_B60F2708-5488-4582-B51A-D0DCDEF39BDD" bpmn2nodeid="_53898B3E-AEE9-41C1-8B66-E890B992EFEE"><g class="stencils" transform="translate(195, 160)"><g class="me"><g id="_B60F2708-5488-4582-B51A-D0DCDEF39BDD">      <defs id="_B60F2708-5488-4582-B51A-D0DCDEF39BDD__B60F2708-5488-4582-B51A-D0DCDEF39BDD_4"> 		<radialGradient id="_B60F2708-5488-4582-B51A-D0DCDEF39BDDbackground" cx="10%" cy="10%" r="100%" fx="10%" fy="10%"> 			<stop offset="0%" stop-color="#ffffff" stop-opacity="1" id="_B60F2708-5488-4582-B51A-D0DCDEF39BDD__B60F2708-5488-4582-B51A-D0DCDEF39BDD_5"/> 			<stop id="_B60F2708-5488-4582-B51A-D0DCDEF39BDDfill_el" offset="100%" stop-color="#f0e68c" stop-opacity="1"/> 		</radialGradient> 	</defs> 	     <path d=" M0 20.5  L20.5 0  L40 20.5  L20.5 40  z" id="_B60F2708-5488-4582-B51A-D0DCDEF39BDDbg_frame" fill="url(#_B60F2708-5488-4582-B51A-D0DCDEF39BDDbackground) white" style="stroke-width:1" stroke="#a67f00"/>     <circle id="_B60F2708-5488-4582-B51A-D0DCDEF39BDDframe" cx="20.5" cy="20.5" r="9.75" style="fill:none;stroke-width:2.5" stroke="#a67f00"/>      	<text id="_B60F2708-5488-4582-B51A-D0DCDEF39BDDtext_name" x="30.5" y="30.5" oryx:align="left top" stroke-width="0pt" letter-spacing="-0.01px" fill="#000000" text-anchor="start" transform="rotate(0 30.5 30.5)" visibility="inherit" oryx:fontSize="12"/> 	   </g></g><g class="children" style="overflow:hidden"/><g class="edge"/></g><g class="controls"><g class="dockers"/><g class="magnets" transform="translate(195, 160)"><g pointer-events="all" display="none" transform="translate(12.5, 12.5)"><circle cx="8" cy="8" r="4" stroke="none" fill="red" fill-opacity="0.3"/></g></g></g></g><g id="_8851DC70-71B5-4C20-B289-0A358C851441" bpmn2nodeid="_6740A901-377D-47A1-81B3-F49FD5CBB25B"><g class="stencils" transform="translate(395, 82.5)"><g class="me"><g pointer-events="fill" oryx:minimumSize="50 40" id="_8851DC70-71B5-4C20-B289-0A358C851441">   	<defs id="_8851DC70-71B5-4C20-B289-0A358C851441__8851DC70-71B5-4C20-B289-0A358C851441_17"> 		<radialGradient id="_8851DC70-71B5-4C20-B289-0A358C851441background" cx="10%" cy="10%" r="100%" fx="10%" fy="10%"> 			<stop offset="0%" stop-color="#ffffff" stop-opacity="1" id="_8851DC70-71B5-4C20-B289-0A358C851441__8851DC70-71B5-4C20-B289-0A358C851441_18"/> 			<stop id="_8851DC70-71B5-4C20-B289-0A358C851441fill_el" offset="100%" stop-color="#fafad2" stop-opacity="1"/> 		</radialGradient> 		<radialGradient id="_8851DC70-71B5-4C20-B289-0A358C851441borderbackground" cx="10%" cy="10%" r="100%" fx="10%" fy="10%"> 			<stop offset="0%" stop-color="#ffffff" stop-opacity="1" id="_8851DC70-71B5-4C20-B289-0A358C851441__8851DC70-71B5-4C20-B289-0A358C851441_19"/> 			<stop id="_8851DC70-71B5-4C20-B289-0A358C851441fill_border" offset="100%" stop-color="#000000" stop-opacity="1" stroke="#000000"/> 		</radialGradient> 	</defs> 	 	<rect id="_8851DC70-71B5-4C20-B289-0A358C851441text_frame" oryx:anchors="bottom top right left" x="1" y="1" width="94" height="79" rx="10" ry="10" stroke="none" stroke-width="0" fill="none"/> 	<rect id="_8851DC70-71B5-4C20-B289-0A358C851441bg_frame" oryx:resize="vertical horizontal" x="0" y="0" width="100" height="80" rx="10" ry="10" stroke="#000000" stroke-width="1" fill="url(#_8851DC70-71B5-4C20-B289-0A358C851441background) #ffffcc"/> 		<text font-size="12" id="_8851DC70-71B5-4C20-B289-0A358C851441text_name" x="50" y="40" oryx:align="middle center" oryx:fittoelem="text_frame" stroke="black" text-anchor="middle" stroke-width="0pt" letter-spacing="-0.01px" fill="#000000" transform="rotate(0 50 40)" visibility="inherit" oryx:fontSize="12"><tspan x="50" y="40" dy="-1">process small </tspan><tspan x="50" y="40" dy="11">ideas</tspan></text>     <g id="_8851DC70-71B5-4C20-B289-0A358C851441manualTask" transform="scale(0.7,0.7) translate(8,8)" display="none">     	<path oryx:anchors="top left" id="_8851DC70-71B5-4C20-B289-0A358C851441frame" style="opacity:1;fill:none;fill-opacity:1;stroke-width:1" d="M0.5,3.751l4.083-3.25c0,0,11.166,0.083,12.083,0.083s-2.417,2.917-1.5,2.917     s11.667,0,12.584,0c1.166,1.708-0.168,3.167-0.834,3.667s0.875,1.917-1,4.417c-0.75,0.25,0.75,1.875-1.333,3.333     c-1.167,0.583,0.583,1.542-1.25,2.833c-1.167,0-20.833,0.083-20.833,0.083l-2-1.333V3.751z" stroke="#000000"/> 		<path id="_8851DC70-71B5-4C20-B289-0A358C851441frame2" oryx:anchors="top left" style="opacity:1;fill:none;stroke-width:2" d="M 13.5 7 L 27 7" stroke="#000000"/> 		<path id="_8851DC70-71B5-4C20-B289-0A358C851441frame3" oryx:anchors="top left" style="opacity:1;fill:none;stroke-width:2" d="M 13.5 11 L 26 11" stroke="#000000"/> 		<path id="_8851DC70-71B5-4C20-B289-0A358C851441frame4" oryx:anchors="top left" style="opacity:1;fill:none;stroke-width:1.5" d="M 14 14.5 L 25 14.5" stroke="#000000"/> 		<path id="_8851DC70-71B5-4C20-B289-0A358C851441frame5" oryx:anchors="top left" style="opacity:1;fill:none;stroke-width:1.5" d="M 8.2 3.1 L 15 3.1" stroke="#000000"/> 	</g> 	 	<g id="_8851DC70-71B5-4C20-B289-0A358C851441businessRuleTask" transform="scale(0.7,0.7) translate(8,8)" display="inherit"> 		<rect id="_8851DC70-71B5-4C20-B289-0A358C851441frame6" oryx:anchors="top left" x="0" y="0" width="22" height="4" style="opacity:1;fill:#B3B1B3;fill-opacity:1;" stroke="#000000"/> 		<rect id="_8851DC70-71B5-4C20-B289-0A358C851441frame7" oryx:anchors="top left" x="0" y="4" style="opacity:1;fill:none;" width="22" height="12" stroke="#000000"/> 		<path id="_8851DC70-71B5-4C20-B289-0A358C851441frame8" oryx:anchors="top left" style="opacity:1;fill:none;" d="M 0 10 L 22 10" stroke="#000000"/> 		<path id="_8851DC70-71B5-4C20-B289-0A358C851441frame9" oryx:anchors="top left" style="opacity:1; fill:none;" d="M 7 4 L 7 16" stroke="#000000"/> 	</g> 	 	<g id="_8851DC70-71B5-4C20-B289-0A358C851441scriptTask" transform="scale(0.7,0.7) translate(8,8)" display="none"> 		<path oryx:anchors="top left" id="_8851DC70-71B5-4C20-B289-0A358C851441frame10" style="opacity:1;fill:none;" stroke="#000000" d="M6.402,0.5h14.5c0,0-5.833,2.833-5.833,5.583s4.417,6,4.417,9.167    s-4.167,5.083-4.167,5.083H0.235c0,0,5-2.667,5-5s-4.583-6.75-4.583-9.25S6.402,0.5,6.402,0.5z"/> 		<path oryx:anchors="top left" id="_8851DC70-71B5-4C20-B289-0A358C851441frame11" style="opacity:1;fill:none;stroke-width:1.5" d="M 3.5 4.5 L 13.5 4.5" stroke="#000000"/> 		<path oryx:anchors="top left" id="_8851DC70-71B5-4C20-B289-0A358C851441frame12" style="opacity:1;fill:none;stroke-width:1.5" d="M 3.8 8.5 L 13.8 8.5" stroke="#000000"/> 		<path oryx:anchors="top left" id="_8851DC70-71B5-4C20-B289-0A358C851441frame13" style="opacity:1;fill:none;stroke-width:1.5" d="M 6.3 12.5 L 16.3 12.5" stroke="#000000"/> 		<path oryx:anchors="top left" id="_8851DC70-71B5-4C20-B289-0A358C851441frame14" style="opacity:1;fill:none;stroke-width:1.5" d="M 6.5 16.5 L 16.5 16.5" stroke="#000000"/> 	</g> 	 	<g id="_8851DC70-71B5-4C20-B289-0A358C851441userTask" transform="scale(0.7,0.7) translate(8,8)" display="none"> 		<path id="_8851DC70-71B5-4C20-B289-0A358C851441frame15" oryx:anchors="top left" style="opacity:1;fill:#F4F6F7" stroke="#000000" d="M0.585,24.167h24.083v-7.833c0,0-2.333-3.917-7.083-5.167h-9.25    c-4.417,1.333-7.833,5.75-7.833,5.75L0.585,24.167z"/> 		<path id="_8851DC70-71B5-4C20-B289-0A358C851441frame16" oryx:anchors="top left" style="opacity:1;fill:none" d="M 6 20 L 6 24" stroke="#000000"/> 		<path id="_8851DC70-71B5-4C20-B289-0A358C851441frame17" oryx:anchors="top left" style="opacity:1;fill:none" d="M 20 20 L 20 24" stroke="#000000"/> 		<circle id="_8851DC70-71B5-4C20-B289-0A358C851441frame18" oryx:anchors="top left" fill="black" cx="13.002" cy="5.916" r="5.417" stroke="#000000"/> 		<path id="_8851DC70-71B5-4C20-B289-0A358C851441frame19" oryx:anchors="top left" style="opacity:1;fill:#F0EFF0;" stroke="#000000" d="M8.043,7.083c0,0,2.814-2.426,5.376-1.807s4.624-0.693,4.624-0.693    c0.25,1.688,0.042,3.75-1.458,5.584c0,0,1.083,0.75,1.083,1.5s0.125,1.875-1,3s-5.5,1.25-6.75,0S8.668,12.834,8.668,12    s0.583-1.25,1.25-1.917C8.835,9.5,7.419,7.708,8.043,7.083z"/> 	</g> 	 	<g id="_8851DC70-71B5-4C20-B289-0A358C851441serviceTask" transform="scale(0.7,0.7) translate(8,8)" display="none"> 		<polygon oryx:anchors="top left" id="_8851DC70-71B5-4C20-B289-0A358C851441frame20" style="opacity:1;fill:#ffffff" stroke="#000000" points="15.392,5.064 17.954,2.502 20.347,4.895 17.786,7.455     18.729,9.732 22.353,9.732 22.353,13.115 18.731,13.115 17.788,15.392 20.351,17.955 17.958,20.347 15.397,17.786 13.12,18.729     13.12,22.353 9.737,22.353 9.737,18.731 7.46,17.788 4.897,20.35 2.506,17.958 5.066,15.397 4.124,13.12 0.5,13.12 0.5,9.737     4.121,9.737 5.065,7.461 2.503,4.898 4.895,2.506 7.455,5.066 9.732,4.125 9.732,0.5 13.116,0.5 13.116,4.121 "/> 		<circle oryx:anchors="top left" id="_8851DC70-71B5-4C20-B289-0A358C851441frame21" style="opacity:1;fill:none" stroke="#000000" cx="11.427" cy="11.426" r="3.714"/> 		<polygon oryx:anchors="top left" id="_8851DC70-71B5-4C20-B289-0A358C851441frame22" style="opacity:1;fill:#ffffff" stroke="#000000" points="21.392,11.064 23.954,8.502 26.347,10.895 23.786,13.455     24.729,15.732 28.353,15.732 28.353,19.115 24.731,19.115 23.788,21.392 26.351,23.955 23.958,26.347 21.397,23.786 19.12,24.729     19.12,28.353 15.737,28.353 15.737,24.731 13.46,23.788 10.897,26.35 8.506,23.958 11.066,21.397 10.124,19.12 6.5,19.12     6.5,15.737 10.121,15.737 11.065,13.461 8.503,10.898 10.895,8.506 13.455,11.066 15.732,10.125 15.732,6.5 19.116,6.5     19.116,10.121 "/> 		<circle oryx:anchors="top left" id="_8851DC70-71B5-4C20-B289-0A358C851441frame23" style="opacity:1;fill:none;" stroke="#000000" cx="17.427" cy="17.426" r="3.714"/> 	</g> 	 	<g id="_8851DC70-71B5-4C20-B289-0A358C851441sendTask" display="none"> 		<path id="_8851DC70-71B5-4C20-B289-0A358C851441stframe24" oryx:anchors="left top" stroke="#FFFFFF" fill="black" stroke-width="1" d="M8,11 L8,21 L24,21 L24,11 L16,17z"/> 		<path id="_8851DC70-71B5-4C20-B289-0A358C851441stframe25" oryx:anchors="left top" stroke="#FFFFFF" fill="black" stroke-width="1" d="M7,10 L16,17 L25 10z"/> 	</g> 	 	<g id="_8851DC70-71B5-4C20-B289-0A358C851441receiveTask" display="none"> 		<path id="_8851DC70-71B5-4C20-B289-0A358C851441frame26" oryx:anchors="left top" stroke="#000000" fill="none" stroke-width="1" d="M8,11 L8,21 L24,21 L24,11z M8,11 L16,17 L24,11"/> 	</g> 	 	<g id="_8851DC70-71B5-4C20-B289-0A358C851441none" display="none"/>  	<g id="_8851DC70-71B5-4C20-B289-0A358C851441sequential" display="none">         <path oryx:anchors="bottom" fill="none" stroke="#000000" stroke-width="2" d="M46,76h10M46,72h10 M46,68h10" id="_8851DC70-71B5-4C20-B289-0A358C851441__8851DC70-71B5-4C20-B289-0A358C851441_20"/>     </g>   </g></g><g class="children" style="overflow:hidden"/><g class="edge"/></g><g class="controls"><g class="dockers"/><g class="magnets" transform="translate(395, 82.5)"><g pointer-events="all" display="none" transform="translate(-7, 12)"><circle cx="8" cy="8" r="4" stroke="none" fill="red" fill-opacity="0.3"/></g><g pointer-events="all" display="none" transform="translate(-7, 32)"><circle cx="8" cy="8" r="4" stroke="none" fill="red" fill-opacity="0.3"/></g><g pointer-events="all" display="none" transform="translate(-7, 52)"><circle cx="8" cy="8" r="4" stroke="none" fill="red" fill-opacity="0.3"/></g><g pointer-events="all" display="none" transform="translate(17, 71)"><circle cx="8" cy="8" r="4" stroke="none" fill="red" fill-opacity="0.3"/></g><g pointer-events="all" display="none" transform="translate(42, 71)"><circle cx="8" cy="8" r="4" stroke="none" fill="red" fill-opacity="0.3"/></g><g pointer-events="all" display="none" transform="translate(67, 71)"><circle cx="8" cy="8" r="4" stroke="none" fill="red" fill-opacity="0.3"/></g><g pointer-events="all" display="none" transform="translate(91, 12)"><circle cx="8" cy="8" r="4" stroke="none" fill="red" fill-opacity="0.3"/></g><g pointer-events="all" display="none" transform="translate(91, 32)"><circle cx="8" cy="8" r="4" stroke="none" fill="red" fill-opacity="0.3"/></g><g pointer-events="all" display="none" transform="translate(91, 52)"><circle cx="8" cy="8" r="4" stroke="none" fill="red" fill-opacity="0.3"/></g><g pointer-events="all" display="none" transform="translate(17, -7)"><circle cx="8" cy="8" r="4" stroke="none" fill="red" fill-opacity="0.3"/></g><g pointer-events="all" display="none" transform="translate(42, -7)"><circle cx="8" cy="8" r="4" stroke="none" fill="red" fill-opacity="0.3"/></g><g pointer-events="all" display="none" transform="translate(67, -7)"><circle cx="8" cy="8" r="4" stroke="none" fill="red" fill-opacity="0.3"/></g><g pointer-events="all" display="none" transform="translate(42, 32)"><circle cx="8" cy="8" r="4" stroke="none" fill="red" fill-opacity="0.3"/></g></g></g></g><g id="_1457374B-666C-48BA-BDF3-A9A02E7D8299" bpmn2nodeid="_A1E2B331-11EC-4E34-96C5-6F7A75ADFFCC"><g class="stencils" transform="translate(390, 195)"><g class="me"><g pointer-events="fill" oryx:minimumSize="50 40" id="_1457374B-666C-48BA-BDF3-A9A02E7D8299">   	<defs id="_1457374B-666C-48BA-BDF3-A9A02E7D8299__1457374B-666C-48BA-BDF3-A9A02E7D8299_17"> 		<radialGradient id="_1457374B-666C-48BA-BDF3-A9A02E7D8299background" cx="10%" cy="10%" r="100%" fx="10%" fy="10%"> 			<stop offset="0%" stop-color="#ffffff" stop-opacity="1" id="_1457374B-666C-48BA-BDF3-A9A02E7D8299__1457374B-666C-48BA-BDF3-A9A02E7D8299_18"/> 			<stop id="_1457374B-666C-48BA-BDF3-A9A02E7D8299fill_el" offset="100%" stop-color="#fafad2" stop-opacity="1"/> 		</radialGradient> 		<radialGradient id="_1457374B-666C-48BA-BDF3-A9A02E7D8299borderbackground" cx="10%" cy="10%" r="100%" fx="10%" fy="10%"> 			<stop offset="0%" stop-color="#ffffff" stop-opacity="1" id="_1457374B-666C-48BA-BDF3-A9A02E7D8299__1457374B-666C-48BA-BDF3-A9A02E7D8299_19"/> 			<stop id="_1457374B-666C-48BA-BDF3-A9A02E7D8299fill_border" offset="100%" stop-color="#000000" stop-opacity="1" stroke="#000000"/> 		</radialGradient> 	</defs> 	 	<rect id="_1457374B-666C-48BA-BDF3-A9A02E7D8299text_frame" oryx:anchors="bottom top right left" x="1" y="1" width="94" height="79" rx="10" ry="10" stroke="none" stroke-width="0" fill="none"/> 	<rect id="_1457374B-666C-48BA-BDF3-A9A02E7D8299bg_frame" oryx:resize="vertical horizontal" x="0" y="0" width="100" height="80" rx="10" ry="10" stroke="#000000" stroke-width="1" fill="url(#_1457374B-666C-48BA-BDF3-A9A02E7D8299background) #ffffcc"/> 		<text font-size="12" id="_1457374B-666C-48BA-BDF3-A9A02E7D8299text_name" x="50" y="40" oryx:align="middle center" oryx:fittoelem="text_frame" stroke="black" text-anchor="middle" stroke-width="0pt" letter-spacing="-0.01px" fill="#000000" transform="rotate(0 50 40)" visibility="inherit" oryx:fontSize="12"><tspan x="50" y="40" dy="-1">process big </tspan><tspan x="50" y="40" dy="11">ideas</tspan></text>     <g id="_1457374B-666C-48BA-BDF3-A9A02E7D8299manualTask" transform="scale(0.7,0.7) translate(8,8)" display="none">     	<path oryx:anchors="top left" id="_1457374B-666C-48BA-BDF3-A9A02E7D8299frame" style="opacity:1;fill:none;fill-opacity:1;stroke-width:1" d="M0.5,3.751l4.083-3.25c0,0,11.166,0.083,12.083,0.083s-2.417,2.917-1.5,2.917     s11.667,0,12.584,0c1.166,1.708-0.168,3.167-0.834,3.667s0.875,1.917-1,4.417c-0.75,0.25,0.75,1.875-1.333,3.333     c-1.167,0.583,0.583,1.542-1.25,2.833c-1.167,0-20.833,0.083-20.833,0.083l-2-1.333V3.751z" stroke="#000000"/> 		<path id="_1457374B-666C-48BA-BDF3-A9A02E7D8299frame2" oryx:anchors="top left" style="opacity:1;fill:none;stroke-width:2" d="M 13.5 7 L 27 7" stroke="#000000"/> 		<path id="_1457374B-666C-48BA-BDF3-A9A02E7D8299frame3" oryx:anchors="top left" style="opacity:1;fill:none;stroke-width:2" d="M 13.5 11 L 26 11" stroke="#000000"/> 		<path id="_1457374B-666C-48BA-BDF3-A9A02E7D8299frame4" oryx:anchors="top left" style="opacity:1;fill:none;stroke-width:1.5" d="M 14 14.5 L 25 14.5" stroke="#000000"/> 		<path id="_1457374B-666C-48BA-BDF3-A9A02E7D8299frame5" oryx:anchors="top left" style="opacity:1;fill:none;stroke-width:1.5" d="M 8.2 3.1 L 15 3.1" stroke="#000000"/> 	</g> 	 	<g id="_1457374B-666C-48BA-BDF3-A9A02E7D8299businessRuleTask" transform="scale(0.7,0.7) translate(8,8)" display="inherit"> 		<rect id="_1457374B-666C-48BA-BDF3-A9A02E7D8299frame6" oryx:anchors="top left" x="0" y="0" width="22" height="4" style="opacity:1;fill:#B3B1B3;fill-opacity:1;" stroke="#000000"/> 		<rect id="_1457374B-666C-48BA-BDF3-A9A02E7D8299frame7" oryx:anchors="top left" x="0" y="4" style="opacity:1;fill:none;" width="22" height="12" stroke="#000000"/> 		<path id="_1457374B-666C-48BA-BDF3-A9A02E7D8299frame8" oryx:anchors="top left" style="opacity:1;fill:none;" d="M 0 10 L 22 10" stroke="#000000"/> 		<path id="_1457374B-666C-48BA-BDF3-A9A02E7D8299frame9" oryx:anchors="top left" style="opacity:1; fill:none;" d="M 7 4 L 7 16" stroke="#000000"/> 	</g> 	 	<g id="_1457374B-666C-48BA-BDF3-A9A02E7D8299scriptTask" transform="scale(0.7,0.7) translate(8,8)" display="none"> 		<path oryx:anchors="top left" id="_1457374B-666C-48BA-BDF3-A9A02E7D8299frame10" style="opacity:1;fill:none;" stroke="#000000" d="M6.402,0.5h14.5c0,0-5.833,2.833-5.833,5.583s4.417,6,4.417,9.167    s-4.167,5.083-4.167,5.083H0.235c0,0,5-2.667,5-5s-4.583-6.75-4.583-9.25S6.402,0.5,6.402,0.5z"/> 		<path oryx:anchors="top left" id="_1457374B-666C-48BA-BDF3-A9A02E7D8299frame11" style="opacity:1;fill:none;stroke-width:1.5" d="M 3.5 4.5 L 13.5 4.5" stroke="#000000"/> 		<path oryx:anchors="top left" id="_1457374B-666C-48BA-BDF3-A9A02E7D8299frame12" style="opacity:1;fill:none;stroke-width:1.5" d="M 3.8 8.5 L 13.8 8.5" stroke="#000000"/> 		<path oryx:anchors="top left" id="_1457374B-666C-48BA-BDF3-A9A02E7D8299frame13" style="opacity:1;fill:none;stroke-width:1.5" d="M 6.3 12.5 L 16.3 12.5" stroke="#000000"/> 		<path oryx:anchors="top left" id="_1457374B-666C-48BA-BDF3-A9A02E7D8299frame14" style="opacity:1;fill:none;stroke-width:1.5" d="M 6.5 16.5 L 16.5 16.5" stroke="#000000"/> 	</g> 	 	<g id="_1457374B-666C-48BA-BDF3-A9A02E7D8299userTask" transform="scale(0.7,0.7) translate(8,8)" display="none"> 		<path id="_1457374B-666C-48BA-BDF3-A9A02E7D8299frame15" oryx:anchors="top left" style="opacity:1;fill:#F4F6F7" stroke="#000000" d="M0.585,24.167h24.083v-7.833c0,0-2.333-3.917-7.083-5.167h-9.25    c-4.417,1.333-7.833,5.75-7.833,5.75L0.585,24.167z"/> 		<path id="_1457374B-666C-48BA-BDF3-A9A02E7D8299frame16" oryx:anchors="top left" style="opacity:1;fill:none" d="M 6 20 L 6 24" stroke="#000000"/> 		<path id="_1457374B-666C-48BA-BDF3-A9A02E7D8299frame17" oryx:anchors="top left" style="opacity:1;fill:none" d="M 20 20 L 20 24" stroke="#000000"/> 		<circle id="_1457374B-666C-48BA-BDF3-A9A02E7D8299frame18" oryx:anchors="top left" fill="black" cx="13.002" cy="5.916" r="5.417" stroke="#000000"/> 		<path id="_1457374B-666C-48BA-BDF3-A9A02E7D8299frame19" oryx:anchors="top left" style="opacity:1;fill:#F0EFF0;" stroke="#000000" d="M8.043,7.083c0,0,2.814-2.426,5.376-1.807s4.624-0.693,4.624-0.693    c0.25,1.688,0.042,3.75-1.458,5.584c0,0,1.083,0.75,1.083,1.5s0.125,1.875-1,3s-5.5,1.25-6.75,0S8.668,12.834,8.668,12    s0.583-1.25,1.25-1.917C8.835,9.5,7.419,7.708,8.043,7.083z"/> 	</g> 	 	<g id="_1457374B-666C-48BA-BDF3-A9A02E7D8299serviceTask" transform="scale(0.7,0.7) translate(8,8)" display="none"> 		<polygon oryx:anchors="top left" id="_1457374B-666C-48BA-BDF3-A9A02E7D8299frame20" style="opacity:1;fill:#ffffff" stroke="#000000" points="15.392,5.064 17.954,2.502 20.347,4.895 17.786,7.455     18.729,9.732 22.353,9.732 22.353,13.115 18.731,13.115 17.788,15.392 20.351,17.955 17.958,20.347 15.397,17.786 13.12,18.729     13.12,22.353 9.737,22.353 9.737,18.731 7.46,17.788 4.897,20.35 2.506,17.958 5.066,15.397 4.124,13.12 0.5,13.12 0.5,9.737     4.121,9.737 5.065,7.461 2.503,4.898 4.895,2.506 7.455,5.066 9.732,4.125 9.732,0.5 13.116,0.5 13.116,4.121 "/> 		<circle oryx:anchors="top left" id="_1457374B-666C-48BA-BDF3-A9A02E7D8299frame21" style="opacity:1;fill:none" stroke="#000000" cx="11.427" cy="11.426" r="3.714"/> 		<polygon oryx:anchors="top left" id="_1457374B-666C-48BA-BDF3-A9A02E7D8299frame22" style="opacity:1;fill:#ffffff" stroke="#000000" points="21.392,11.064 23.954,8.502 26.347,10.895 23.786,13.455     24.729,15.732 28.353,15.732 28.353,19.115 24.731,19.115 23.788,21.392 26.351,23.955 23.958,26.347 21.397,23.786 19.12,24.729     19.12,28.353 15.737,28.353 15.737,24.731 13.46,23.788 10.897,26.35 8.506,23.958 11.066,21.397 10.124,19.12 6.5,19.12     6.5,15.737 10.121,15.737 11.065,13.461 8.503,10.898 10.895,8.506 13.455,11.066 15.732,10.125 15.732,6.5 19.116,6.5     19.116,10.121 "/> 		<circle oryx:anchors="top left" id="_1457374B-666C-48BA-BDF3-A9A02E7D8299frame23" style="opacity:1;fill:none;" stroke="#000000" cx="17.427" cy="17.426" r="3.714"/> 	</g> 	 	<g id="_1457374B-666C-48BA-BDF3-A9A02E7D8299sendTask" display="none"> 		<path id="_1457374B-666C-48BA-BDF3-A9A02E7D8299stframe24" oryx:anchors="left top" stroke="#FFFFFF" fill="black" stroke-width="1" d="M8,11 L8,21 L24,21 L24,11 L16,17z"/> 		<path id="_1457374B-666C-48BA-BDF3-A9A02E7D8299stframe25" oryx:anchors="left top" stroke="#FFFFFF" fill="black" stroke-width="1" d="M7,10 L16,17 L25 10z"/> 	</g> 	 	<g id="_1457374B-666C-48BA-BDF3-A9A02E7D8299receiveTask" display="none"> 		<path id="_1457374B-666C-48BA-BDF3-A9A02E7D8299frame26" oryx:anchors="left top" stroke="#000000" fill="none" stroke-width="1" d="M8,11 L8,21 L24,21 L24,11z M8,11 L16,17 L24,11"/> 	</g> 	 	<g id="_1457374B-666C-48BA-BDF3-A9A02E7D8299none" display="none"/>  	<g id="_1457374B-666C-48BA-BDF3-A9A02E7D8299sequential" display="none">         <path oryx:anchors="bottom" fill="none" stroke="#000000" stroke-width="2" d="M46,76h10M46,72h10 M46,68h10" id="_1457374B-666C-48BA-BDF3-A9A02E7D8299__1457374B-666C-48BA-BDF3-A9A02E7D8299_20"/>     </g>   </g></g><g class="children" style="overflow:hidden"/><g class="edge"/></g><g class="controls"><g class="dockers"/><g class="magnets" transform="translate(390, 195)"><g pointer-events="all" display="none" transform="translate(-7, 12)"><circle cx="8" cy="8" r="4" stroke="none" fill="red" fill-opacity="0.3"/></g><g pointer-events="all" display="none" transform="translate(-7, 32)"><circle cx="8" cy="8" r="4" stroke="none" fill="red" fill-opacity="0.3"/></g><g pointer-events="all" display="none" transform="translate(-7, 52)"><circle cx="8" cy="8" r="4" stroke="none" fill="red" fill-opacity="0.3"/></g><g pointer-events="all" display="none" transform="translate(17, 71)"><circle cx="8" cy="8" r="4" stroke="none" fill="red" fill-opacity="0.3"/></g><g pointer-events="all" display="none" transform="translate(42, 71)"><circle cx="8" cy="8" r="4" stroke="none" fill="red" fill-opacity="0.3"/></g><g pointer-events="all" display="none" transform="translate(67, 71)"><circle cx="8" cy="8" r="4" stroke="none" fill="red" fill-opacity="0.3"/></g><g pointer-events="all" display="none" transform="translate(91, 12)"><circle cx="8" cy="8" r="4" stroke="none" fill="red" fill-opacity="0.3"/></g><g pointer-events="all" display="none" transform="translate(91, 32)"><circle cx="8" cy="8" r="4" stroke="none" fill="red" fill-opacity="0.3"/></g><g pointer-events="all" display="none" transform="translate(91, 52)"><circle cx="8" cy="8" r="4" stroke="none" fill="red" fill-opacity="0.3"/></g><g pointer-events="all" display="none" transform="translate(17, -7)"><circle cx="8" cy="8" r="4" stroke="none" fill="red" fill-opacity="0.3"/></g><g pointer-events="all" display="none" transform="translate(42, -7)"><circle cx="8" cy="8" r="4" stroke="none" fill="red" fill-opacity="0.3"/></g><g pointer-events="all" display="none" transform="translate(67, -7)"><circle cx="8" cy="8" r="4" stroke="none" fill="red" fill-opacity="0.3"/></g><g pointer-events="all" display="none" transform="translate(42, 32)"><circle cx="8" cy="8" r="4" stroke="none" fill="red" fill-opacity="0.3"/></g></g></g></g><g id="_3EC7AC65-BD87-4C3B-BF98-03B8578AFBD4" bpmn2nodeid="_EECFAA2E-000B-4706-A7D3-F7987F9275DD"><g class="stencils" transform="translate(630, 160)"><g class="me"><g id="_3EC7AC65-BD87-4C3B-BF98-03B8578AFBD4">        <defs id="_3EC7AC65-BD87-4C3B-BF98-03B8578AFBD4__3EC7AC65-BD87-4C3B-BF98-03B8578AFBD4_4"> 		<radialGradient id="_3EC7AC65-BD87-4C3B-BF98-03B8578AFBD4background" cx="10%" cy="10%" r="100%" fx="10%" fy="10%"> 			<stop offset="0%" stop-color="#ffffff" stop-opacity="1" id="_3EC7AC65-BD87-4C3B-BF98-03B8578AFBD4__3EC7AC65-BD87-4C3B-BF98-03B8578AFBD4_5"/> 			<stop id="_3EC7AC65-BD87-4C3B-BF98-03B8578AFBD4fill_el" offset="100%" stop-color="#f0e68c" stop-opacity="1"/> 		</radialGradient> 		<radialGradient id="_3EC7AC65-BD87-4C3B-BF98-03B8578AFBD4borderbackground" cx="10%" cy="10%" r="100%" fx="10%" fy="10%"> 			<stop offset="0%" stop-color="#ffffff" stop-opacity="1" id="_3EC7AC65-BD87-4C3B-BF98-03B8578AFBD4__3EC7AC65-BD87-4C3B-BF98-03B8578AFBD4_6"/> 			<stop id="_3EC7AC65-BD87-4C3B-BF98-03B8578AFBD4fill_border" offset="100%" stop-color="#a67f00" stop-opacity="1" stroke="#a67f00"/> 		</radialGradient> 	</defs> 	     <path d=" M0 20.5  L20.5 0  L40 20.5  L20.5 40  z" id="_3EC7AC65-BD87-4C3B-BF98-03B8578AFBD4bg_frame" fill="url(#_3EC7AC65-BD87-4C3B-BF98-03B8578AFBD4background) white" style="stroke-width:1" stroke="#a67f00"/>     <g id="_3EC7AC65-BD87-4C3B-BF98-03B8578AFBD4frame" stroke="#a67f00">       <path id="_3EC7AC65-BD87-4C3B-BF98-03B8578AFBD4frame2" d=" M13.25 12.05  L17.25 12.05  L27.65 28.95  L23.75 28.95  z" style="stroke-width:1" stroke="#a67f00" fill="url(#_3EC7AC65-BD87-4C3B-BF98-03B8578AFBD4borderbackground)"/>       <path id="_3EC7AC65-BD87-4C3B-BF98-03B8578AFBD4frame3" d=" M13.25 28.95  L23.75 12.05  L27.65 12.05  L17.25 28.95  z" style="stroke-width:1" stroke="#a67f00" fill="url(#_3EC7AC65-BD87-4C3B-BF98-03B8578AFBD4borderbackground)"/>     </g> 	 	<text id="_3EC7AC65-BD87-4C3B-BF98-03B8578AFBD4text_name" x="30.5" y="30.5" oryx:align="left top" stroke-width="0pt" letter-spacing="-0.01px" fill="#000000" text-anchor="start" transform="rotate(0 30.5 30.5)" visibility="inherit" oryx:fontSize="12"/> 	   </g></g><g class="children" style="overflow:hidden"/><g class="edge"/></g><g class="controls"><g class="dockers"/><g class="magnets" transform="translate(630, 160)"><g pointer-events="all" display="none" transform="translate(12.5, 12.5)"><circle cx="8" cy="8" r="4" stroke="none" fill="red" fill-opacity="0.3"/></g></g></g></g><g id="_2DEAAF4F-B8F9-4B83-AEA5-824D03C4E1F5" bpmn2nodeid="_9BD52B2B-CCAC-4F29-B9E5-CE9F29DF1D5A"><g class="stencils" transform="translate(705, 165)"><g class="me"><g pointer-events="fill" id="_2DEAAF4F-B8F9-4B83-AEA5-824D03C4E1F5">      <defs id="_2DEAAF4F-B8F9-4B83-AEA5-824D03C4E1F5__2DEAAF4F-B8F9-4B83-AEA5-824D03C4E1F5_5"> 		<radialGradient id="_2DEAAF4F-B8F9-4B83-AEA5-824D03C4E1F5background" cx="10%" cy="10%" r="100%" fx="10%" fy="10%"> 			<stop offset="0%" stop-color="#ffffff" stop-opacity="1" id="_2DEAAF4F-B8F9-4B83-AEA5-824D03C4E1F5__2DEAAF4F-B8F9-4B83-AEA5-824D03C4E1F5_6"/> 			<stop id="_2DEAAF4F-B8F9-4B83-AEA5-824D03C4E1F5fill_el" offset="100%" stop-color="#ff6347" stop-opacity="1"/> 		</radialGradient> 	</defs> 	     <circle id="_2DEAAF4F-B8F9-4B83-AEA5-824D03C4E1F5bg_frame" cx="14" cy="14" r="14" stroke="#000000" fill="url(#_2DEAAF4F-B8F9-4B83-AEA5-824D03C4E1F5background) white" stroke-width="3"/> 	<text font-size="11" id="_2DEAAF4F-B8F9-4B83-AEA5-824D03C4E1F5text_name" x="14" y="30" oryx:align="top center" stroke="black" stroke-width="0pt" letter-spacing="-0.01px" fill="#000000" text-anchor="middle" transform="rotate(0 14 30)" visibility="inherit" oryx:fontSize="11"/>   </g></g><g class="children" style="overflow:hidden"/><g class="edge"/></g><g class="controls"><g class="dockers"/><g class="magnets" transform="translate(705, 165)"><g pointer-events="all" display="none" transform="translate(6, 6)"><circle cx="8" cy="8" r="4" stroke="none" fill="red" fill-opacity="0.3"/></g></g></g></g></g><g class="edge"><g id="_60DD1700-8230-437F-B419-82B7678B9C3E" bpmn2nodeid="_A5C33803-45F6-4AF9-AB26-09CD94224568"><g class="stencils"><g class="me"><g pointer-events="painted" bpmn2nodeid="_A5C33803-45F6-4AF9-AB26-09CD94224568"><path id="_60DD1700-8230-437F-B419-82B7678B9C3E_1" d="M150.46482446117886 180.0960548103179L194.37501928882116 180.3687889396821 " stroke="#000000" fill="none" stroke-width="2" stroke-linecap="round" stroke-linejoin="round" marker-start="url(#_60DD1700-8230-437F-B419-82B7678B9C3Estart)" marker-end="url(#_60DD1700-8230-437F-B419-82B7678B9C3Eend)"/></g><text id="_60DD1700-8230-437F-B419-82B7678B9C3Etext_name" font-size="12" x="164.46482446117886" y="166.0960548103179" oryx:edgePosition="startTop" stroke-width="0pt" letter-spacing="-0.01px" fill="#000000" text-anchor="start" transform="rotate(0.35586983062182753 150.46482446117886 180.0960548103179)" visibility="inherit" oryx:fontSize="12"/></g><g class="children" style="overflow:hidden"/><g class="edge"/></g><g class="controls"><g class="dockers"/><g class="magnets"/></g></g><g id="_2FAE9FA7-5E86-43D2-93AC-40A80844F621" bpmn2nodeid="_EA1FF2B2-F118-49C2-91C2-40A96F10A6F0"><g class="stencils"><g class="me"><g pointer-events="painted" bpmn2nodeid="_EA1FF2B2-F118-49C2-91C2-40A96F10A6F0"><path id="_2FAE9FA7-5E86-43D2-93AC-40A80844F621_1" d="M231.70975244553122 176.40341768261084L394.72384130446875 135.20595731738916 " stroke="#000000" fill="none" stroke-width="2" stroke-linecap="round" stroke-linejoin="round" marker-start="url(#_2FAE9FA7-5E86-43D2-93AC-40A80844F621start)" marker-end="url(#_2FAE9FA7-5E86-43D2-93AC-40A80844F621end)"/></g><text id="_2FAE9FA7-5E86-43D2-93AC-40A80844F621text_name" font-size="12" x="245.70975244553122" y="162.40341768261084" oryx:edgePosition="startTop" stroke-width="0pt" letter-spacing="-0.01px" fill="#000000" text-anchor="start" transform="rotate(345.81699512273764 231.70975244553122 176.40341768261084)" visibility="inherit" oryx:fontSize="12"/></g><g class="children" style="overflow:hidden"/><g class="edge"/></g><g class="controls"><g class="dockers"/><g class="magnets"/></g></g><g id="_A8D73EBD-4219-4651-9595-1BB8E29EA877" bpmn2nodeid="_5F8E5D85-7C43-4DD6-9BBF-F8F8ACC6674D"><g class="stencils"><g class="me"><g pointer-events="painted" bpmn2nodeid="_5F8E5D85-7C43-4DD6-9BBF-F8F8ACC6674D"><path id="_A8D73EBD-4219-4651-9595-1BB8E29EA877_1" d="M231.3799780968767 184.35505036204802L389.9188500281233 222.84221526295198 " stroke="#000000" fill="none" stroke-width="2" stroke-linecap="round" stroke-linejoin="round" marker-start="url(#_A8D73EBD-4219-4651-9595-1BB8E29EA877start)" marker-end="url(#_A8D73EBD-4219-4651-9595-1BB8E29EA877end)"/></g><text id="_A8D73EBD-4219-4651-9595-1BB8E29EA877text_name" font-size="12" x="245.3799780968767" y="170.35505036204802" oryx:edgePosition="startTop" stroke-width="0pt" letter-spacing="-0.01px" fill="#000000" text-anchor="start" transform="rotate(13.645254716342947 231.3799780968767 184.35505036204802)" visibility="inherit" oryx:fontSize="12"/></g><g class="children" style="overflow:hidden"/><g class="edge"/></g><g class="controls"><g class="dockers"/><g class="magnets"/></g></g><g id="_FBCE652F-F4B0-4077-B59B-374C6EEBA0C8" bpmn2nodeid="_2C17ECB3-BF33-4A01-8506-C7B12A4BCFC2"><g class="stencils"><g class="me"><g pointer-events="painted" bpmn2nodeid="_2C17ECB3-BF33-4A01-8506-C7B12A4BCFC2"><path id="_FBCE652F-F4B0-4077-B59B-374C6EEBA0C8_1" d="M490.3040171030434 221.97591956239492L633.9088735219566 184.79556481260508 " stroke="#000000" fill="none" stroke-width="2" stroke-linecap="round" stroke-linejoin="round" marker-start="url(#_FBCE652F-F4B0-4077-B59B-374C6EEBA0C8start)" marker-end="url(#_FBCE652F-F4B0-4077-B59B-374C6EEBA0C8end)"/></g><text id="_FBCE652F-F4B0-4077-B59B-374C6EEBA0C8text_name" font-size="12" x="504.3040171030434" y="207.97591956239492" oryx:edgePosition="startTop" stroke-width="0pt" letter-spacing="-0.01px" fill="#000000" text-anchor="start" transform="rotate(345.4844388279302 490.3040171030434 221.97591956239492)" visibility="inherit" oryx:fontSize="12"/></g><g class="children" style="overflow:hidden"/><g class="edge"/></g><g class="controls"><g class="dockers"/><g class="magnets"/></g></g><g id="_93878EB5-8930-4E6D-A12F-DF78DB0E3A7D" bpmn2nodeid="_8276F986-EB7F-4EE3-9DD6-DDD6D7CECCF7"><g class="stencils"><g class="me"><g pointer-events="painted" bpmn2nodeid="_8276F986-EB7F-4EE3-9DD6-DDD6D7CECCF7"><path id="_93878EB5-8930-4E6D-A12F-DF78DB0E3A7D_1" d="M495.6112794719238 136.69584668114936L634.6230955280762 175.68696581885064 " stroke="#000000" fill="none" stroke-width="2" stroke-linecap="round" stroke-linejoin="round" marker-start="url(#_93878EB5-8930-4E6D-A12F-DF78DB0E3A7Dstart)" marker-end="url(#_93878EB5-8930-4E6D-A12F-DF78DB0E3A7Dend)"/></g><text id="_93878EB5-8930-4E6D-A12F-DF78DB0E3A7Dtext_name" font-size="12" x="509.6112794719238" y="122.69584668114936" oryx:edgePosition="startTop" stroke-width="0pt" letter-spacing="-0.01px" fill="#000000" text-anchor="start" transform="rotate(15.668160421752475 495.6112794719238 136.69584668114936)" visibility="inherit" oryx:fontSize="12"/></g><g class="children" style="overflow:hidden"/><g class="edge"/></g><g class="controls"><g class="dockers"/><g class="magnets"/></g></g><g id="_6BAE6B82-3C85-4277-99A5-48C80DE8CF30" bpmn2nodeid="_DE3D864C-693D-4F5C-B6C1-4FA830A41A0F"><g class="stencils"><g class="me"><g pointer-events="painted" bpmn2nodeid="_DE3D864C-693D-4F5C-B6C1-4FA830A41A0F"><path id="_6BAE6B82-3C85-4277-99A5-48C80DE8CF30_1" d="M669.0134419080125 179.2746781754833L680 178.54752708854215 L704.5938172948947 178.83286134790842 " stroke="#000000" fill="none" stroke-width="2" stroke-linecap="round" stroke-linejoin="round" marker-start="url(#_6BAE6B82-3C85-4277-99A5-48C80DE8CF30start)" marker-end="url(#_6BAE6B82-3C85-4277-99A5-48C80DE8CF30end)"/></g><text id="_6BAE6B82-3C85-4277-99A5-48C80DE8CF30text_name" font-size="12" x="683.0134419080125" y="165.2746781754833" oryx:edgePosition="startTop" stroke-width="0pt" letter-spacing="-0.01px" fill="#000000" text-anchor="start" transform="rotate(356.21337159439213 669.0134419080125 179.2746781754833)" visibility="inherit" oryx:fontSize="12"/></g><g class="children" style="overflow:hidden"/><g class="edge"/></g><g class="controls"><g class="dockers"/><g class="magnets"/></g></g></g><text id="_F49AADB1-5A8C-4F41-8354-901512F9DBE6" style="stroke-width:1;fill:rgb(177,194,214);font-family:arial;font-weight:bold" font-size="12" onclick="ORYX.Plugins.CanvasTitle.openTextualAnalysis()" onmouseover="ORYX.Plugins.CanvasTitle.addToolTip('_F49AADB1-5A8C-4F41-8354-901512F9DBE6')" transform="translate(10, 20)">
 v.1.0 (doit.doit.Process)</text></g></g></svg>